<?xml version="1.0" encoding="UTF-8"?>
<!-- Generator: Adobe Illustrator 21.1.0, SVG Export Plug-In . SVG Version: 6.00 Build 0)  -->
<svg version="1.1" id="Ebene_1" xmlns="http://www.w3.org/2000/svg" xmlns:xlink="http://www.w3.org/1999/xlink" x="0px" y="0px" viewBox="0 0 500 500" style="enable-background:new 0 0 500 500;" xml:space="preserve">
<style type="text/css">
	.st0{fill:#d1d1d1;}
</style>
<path class="st0" d="M265.2,79.3c27.2-35.8,65-36,65-36s5.6,33.7-21.4,66.1c-28.8,34.6-61.6,29-61.6,29S241,111.2,265.2,79.3z"/>
<path class="st0" d="M250.6,162c14,0,39.9-19.2,73.7-19.2c58.1,0,81,41.4,81,41.4s-44.7,22.9-44.7,78.4c0,62.6,55.7,84.2,55.7,84.2  s-39,109.7-91.6,109.7c-24.2,0-43-16.3-68.4-16.3c-25.9,0-51.7,16.9-68.5,16.9c-48.1,0-108.8-104-108.8-187.6  c0-82.3,51.4-125.4,99.6-125.4C210,144,234.3,162,250.6,162z"/>
</svg>