<?xml version="1.0" encoding="UTF-8"?>
<!-- Generator: Adobe Illustrator 21.1.0, SVG Export Plug-In . SVG Version: 6.00 Build 0)  -->
<svg version="1.1" id="Ebene_1" xmlns="http://www.w3.org/2000/svg" xmlns:xlink="http://www.w3.org/1999/xlink" x="0px" y="0px" viewBox="0 0 500 500" style="enable-background:new 0 0 500 500;" xml:space="preserve">
<style type="text/css">
	.st0{fill:#d1d1d1;}
</style>
<path class="st0" d="M217.1,131.9c-4.7,0.5-3.1,4.9-5.7,5C208.8,137,209.3,131.3,217.1,131.9z M231.4,132.6c4.6-1.2,4.6,3.5,7.1,2.6  C241,134.4,238.5,129.3,231.4,132.6z M390.2,436.5c-14.2,7.2-32.8,23.1-39.7,29.6c-5.1,4.9-26.5,7.3-38.4,1.2  c-14.1-7.3-6.6-18.6-28.4-19.1c-10.8-0.3-21.3-0.3-31.9-0.2c-9.3,0.1-18.6,0.4-28.1,0.9c-32.7,0.3-35.8,21.6-56.6,20.9  c-14.2-0.5-32.2-11.8-63.1-18.2c-21.7-4.5-42.5-5.6-47-15.2s5.5-20.3,6.2-29.8c0.8-12.4-9.4-29.3-1.9-35.9  c6.2-5.4,19.9-1.4,28.7-6.4c9.4-5.2,13.1-9.5,13.1-21c3.4,11.7-0.2,21.3-7.9,26.1c-4.6,2.8-13.2,4.3-20.2,3.5  c-5.6-0.5-9,0.4-10.7,2.5c-2.2,2.8-1.5,7.6,1.3,14c2.7,6.4,6,10.5,5.6,18.4s-9.1,17.2-7.7,23.8c0.5,2.5,3,4.7,9,6.4  c9.9,2.8,27.7,5.3,45.2,9.6c19.5,4.8,39.6,13.8,52.1,12c37.3-5.2,16.1-45.3,10-54.8c-31.5-49.6-52.4-82.1-69.1-69.2  c-4.4,3.4-4.5-8.4-4.3-13c0.7-16.3,9-22,13.9-34.7c9.2-23.8,16.4-51,30.7-65.1c10.6-13.6,27.2-35.9,30.3-47.7  c-2.7-25.7-3.5-52.7-3.9-76.3c-0.4-25.2,3.6-47.2,32-62.7c6.9-3.8,15.9-5.1,25.5-5.2c17.1-0.2,35.9,4.6,47.9,13.5  c19.2,14.2,31.2,44.4,29.8,66.2c-1.1,16.7,1.9,34.3,7.2,52.3c6.4,21.4,16.6,36.5,32.7,53.6c19.5,20.6,34.6,61.3,38.9,87  c4,24.1-1.2,38.9-6.5,39.7c-7.9,1.2-12.8,26.1-37.4,25c-15.7-0.8-17.2-10-21.6-17.9c-7-12.6-14.1-8.7-17,4.5  c-1.5,6.7-0.4,16.4,1.8,23.9c4.4,15.4,2.9,30,0.3,47.7c-5,34,23.8,40.4,43.2,24.3c19.2-16,23.3-18.5,47.5-26.8  c36.6-12.5,24.3-23.6,4.6-30.2c-17.6-5.9-18.4-35.7-12-41.3c1.4,32,18.1,36.6,25.1,41C449.6,412.2,407.9,427.6,390.2,436.5z   M308.8,342.8c3.3-4,7.3-4.4,12.4-4.5c0.8-19.5,31.1-18.1,41.1-9.9c0-4.5-9.5-8.6-13.4-10.5c6.6-22,3.5-30.9-0.9-51.7  c-3.3-15.9-17.8-37.2-29.1-43.9c2.9,2.5,8.3,9.8,14,20.5c9.9,18.4,19.6,45.6,13.1,68.4c-2.5,8.7-8.2,9.8-12.1,10.3  c-17.4,1.8-7.2-20.6-14.4-51.4c-8-34.3-16.3-36.9-18.4-39.5c-10-44.6-21.1-40.1-24.2-57c-2.8-14.9,13-27.2-8.5-31.4  c-6.5-1.3-15.9-7.9-19.7-8.4c-3.7-0.5-5.5-24.6,8.1-25.6c13.6-1,16.2,15.3,13.5,21.8c-3.9,6.4,0.3,8.8,7,6.7  c5.5-1.7,1.9-16,3.3-18.1c-3.5-20.5-12.1-23.4-21-25.2c-33.8,2.6-18.6,40-22.1,36.4c-4.8-5.1-19.2-0.3-19.1-3.5  c0.3-19.1-6.1-30.2-14.9-30.4c-9.8-0.3-13.9,13.5-14.5,21.2c-0.6,7.4,4.4,22.9,8.1,21.7c2.4-0.8,6.5-5.6,2.1-5.6  c-2.3,0-5.7-5.3-6-11.7c-0.3-6.4,2-12.9,10.4-12.5c9.8,0.4,9.7,19.5,8.6,20.2c-3.1,2.2-7.1,6.4-7.6,7.1c-3.1,5.2-9.4,6.5-11.6,8.8  c-4.4,4.4-5.2,9.3-2,11.2c11.2,6.4,7.6,13.6,23.2,14.2c10.3,0.4,18-1.6,25-3.7c5.5-1.6,23-5.4,26.7-11.8c1.6-2.7,3.6-2.8,5-2  c2.4,1.4,2.9,5.9-3.2,7.5c-8.7,2.4-17.4,7-25.1,10c-7.6,3.1-10.1,4.3-17.3,5.6c-16.3,2.9-28.3-5.9-17.4,4.7  c3.6,3.5,7.1,5.7,16.4,5.3c20.5-0.8,43.4-25.4,45.7-14.4c0.5,2.3-6.5,5.3-11.9,8c-19.2,9.4-32.7,28.1-45,21.6  c-11-5.8-21.9-33.1-21.8-20.9c0.3,18.9-24.8,35.6-13.3,57.1c-7.5,2-24.6,38.1-27,56.9c-1.3,10.6,1,24-1.5,31.5  c-3.7,10.8-20.5-10.3-15.1-36.1c1-4.5,0.2-5.5-1.1-3.3c-6.8,12.1-3.1,28.9,2.3,40.7c2.4,5.1,7.9,7.4,12,11.9  c8.8,9.8,42.5,34.8,48.6,40.8c7.4,7.3,5.3,24-10.4,25.6c8.1,15.2,15.9,16.7,15.8,41.5c9.1-4.9,5.5-15.6,1.6-22.7  c-2.7-4.8-6.2-7-5.4-8.2c0.6-0.9,5.3-4.9,8.1-1.7c8.3,9.3,24,11,40.9,8.9c16.8-2.1,34.9-8,43.3-21.4c3.9-6.3,6.7-8.5,8.6-7.4  c1.8,1.1,2.6,5.6,2.4,12.7c-0.2,7.9-3.5,16.2-5.6,22.8c-2.3,7.5-3,12.8,4.2,13c2.2-13.8,6-27.4,7.1-41.1  C307.9,386.4,296.6,357.3,308.8,342.8z M205.6,121.1c-0.6,3.1-0.3,5,1.8,5c0.3,0,0.7-0.1,0.9-0.9c1-6.1-2.1-10.6-3.4-10.9  c-3-0.8-2.6,3.5-1.1,3.2C204.7,117.3,205.9,118.9,205.6,121.1z M261.2,112.6c-3.1,0.3-2.2,1.8-0.7,2.3c2,0.6,3.9,4,4.3,7.7  c0,0.3,2.6-0.5,2.6-1.3C267.6,115.3,262.5,112.5,261.2,112.6z"/>
</svg>